<svg xmlns="http://www.w3.org/2000/svg" width="24" height="24" viewBox="0 0 24 24"><path fill="#fff" d="m17.042 10.894l-4-4.006a1 1 0 0 0-.2-.14l4.37 4.356a.7.7 0 0 0-.17-.21"/><path fill="#fff" d="M20.962 3.002A3.56 3.56 0 0 0 18.502 2a3.64 3.64 0 0 0-2.55 1.002l-1.32 1.592a2.4 2.4 0 0 0-.68-.45a2.17 2.17 0 0 0-1.66 0a2.2 2.2 0 0 0-.7.47a2.185 2.185 0 0 0-.16 2.864l-7.4 7.421a2.64 2.64 0 0 0-.63 2.694l-.85.852a1.9 1.9 0 0 0-.41.61c-.09.227-.137.468-.14.712c.002.25.05.498.14.73q.144.325.39.582l.33.36c.176.176.383.318.61.42c.232.093.48.14.73.141c.247-.002.49-.05.72-.14a1.9 1.9 0 0 0 .6-.41l.87-.862c.36.121.743.16 1.12.11a2.63 2.63 0 0 0 1.55-.741l7.45-7.441c.371.28.825.432 1.29.43c.568 0 1.114-.222 1.52-.62a2.135 2.135 0 0 0 0-3.005l1.6-1.242l.09-.08a3.57 3.57 0 0 0-.08-5.007zm-1 3.886l-2.21 1.722a.77.77 0 0 0-.29.54a.8.8 0 0 0 .21.582l.57.57q.09.099.14.22a.5.5 0 0 1 .05.251a.56.56 0 0 1-.05.25a.6.6 0 0 1-.14.211a.69.69 0 0 1-.93 0l-.11-.1l-4.37-4.357l-.18-.17a.66.66 0 0 1 0-.931a.8.8 0 0 1 .21-.15a.7.7 0 0 1 .25 0a.7.7 0 0 1 .25 0q.115.06.21.15l.58.57a.73.73 0 0 0 .56.21a.77.77 0 0 0 .54-.27l1.78-2.153a1.94 1.94 0 0 1 1.44-.56a2.06 2.06 0 0 1 1.85 1.236a2.07 2.07 0 0 1-.35 2.199z"/></svg>
