<svg xmlns="http://www.w3.org/2000/svg" width="24" height="24" viewBox="0 0 24 24"><path fill="#fff" d="M13.65 6.86v10.28c.001.385-.088.765-.26 1.11a2.14 2.14 0 0 1-.74.86a2 2 0 0 1-1.09.34a1.93 1.93 0 0 1-1.08-.33l-4-2.63a.5.5 0 0 0-.26-.08H4.35a2 2 0 0 1-1.52-.72a2.45 2.45 0 0 1-.58-1.6V9.91a2.45 2.45 0 0 1 .58-1.59a2 2 0 0 1 1.52-.72h1.9a.5.5 0 0 0 .27-.09l4-2.63a2 2 0 0 1 1.08-.33a2 2 0 0 1 1.09.34c.318.217.573.514.74.86c.158.348.233.728.22 1.11m2.6 9.68a.8.8 0 0 1-.53-.22a.75.75 0 0 1 0-1.06a4.59 4.59 0 0 0 0-6.5a.75.75 0 1 1 1.06-1.06a6.08 6.08 0 0 1 0 8.62a.8.8 0 0 1-.53.22"/><path fill="#fff" d="M18.5 18.78a.73.73 0 0 1-.53-.22a.74.74 0 0 1 0-1.06a7.81 7.81 0 0 0 0-11a.74.74 0 0 1 0-1.06a.75.75 0 0 1 1.06 0a9.31 9.31 0 0 1 0 13.15a.74.74 0 0 1-.53.19"/></svg>
